<?xml version="1.0" encoding="utf-8"?>
<!-- Generator: Adobe Illustrator 25.2.0, SVG Export Plug-In . SVG Version: 6.00 Build 0)  -->
<svg version="1.1" xmlns="http://www.w3.org/2000/svg" xmlns:xlink="http://www.w3.org/1999/xlink" x="0px" y="0px"
	 viewBox="0 0 3000 3000" style="enable-background:new 0 0 3000 3000;" xml:space="preserve">
<style type="text/css">
	.st0{display:none;}
	.st1{display:inline;fill:#0C0C0C;}
	.st2{display:none;fill:#FFFFFF;}
	.st3{fill:#004F32;}
	.st4{fill:#92FF97;}
	.st5{fill:#FFFFFF;}
</style>
<g id="Layer_2" class="st0">
	<rect x="3194.87" y="34.37" class="st1" width="2964.88" height="1127.75"/>
</g>
<g id="Layer_3">
	<rect x="0" y="0" class="st2" width="3000" height="3000"/>
	<g id="Layer_4">
	</g>
	<rect x="-82.17" y="-82.17" class="st3" width="3164.34" height="3164.34"/>
	<g>
		<g>
			<path class="st4" d="M344.21,1833.21c2.16-0.45,4.11-1.18,5.86-2.21c1.75-1.01,3.19-2.36,4.33-4.03
				c1.14-1.67,1.71-3.72,1.71-6.16c0-3.34-1.08-6.2-3.24-8.61c-2.16-2.4-4.86-4.59-8.12-6.59c-3.25-1.99-6.79-3.95-10.61-5.85
				c-3.83-1.92-7.37-4.05-10.62-6.41c-3.25-2.36-5.96-5.08-8.12-8.18c-2.16-3.09-3.24-6.83-3.24-11.23c0-3.17,0.73-6,2.2-8.49
				c1.47-2.48,3.42-4.58,5.86-6.28s5.27-3,8.48-3.91c3.22-0.89,6.53-1.33,9.95-1.33c3.99,0,7.75,0.55,11.29,1.64
				c3.54,1.1,6.73,2.87,9.58,5.3v12.58c-1.63-2.11-3.32-3.84-5.07-5.19c-1.75-1.35-3.52-2.4-5.31-3.17
				c-1.79-0.77-3.56-1.3-5.31-1.59c-1.75-0.29-3.44-0.43-5.07-0.43c-4.64,0-8.48,0.95-11.53,2.86c-3.05,1.92-4.58,4.66-4.58,8.25
				c0,3,1.07,5.59,3.23,7.75c2.16,2.16,4.86,4.17,8.12,6.04c3.25,1.87,6.79,3.72,10.62,5.55c3.83,1.82,7.37,3.95,10.62,6.34
				c3.25,2.4,5.96,5.19,8.12,8.36c2.15,3.18,3.23,7.04,3.23,11.6c0,4.23-0.85,7.83-2.56,10.81c-1.7,2.97-3.96,5.36-6.77,7.2
				c-2.81,1.82-5.97,3.15-9.46,3.96c-3.5,0.82-7.07,1.23-10.74,1.23c-5.04,0-9.79-0.75-14.22-2.26c-4.43-1.5-8.61-4.12-12.51-7.87
				v-11.35c2.36,2.36,4.72,4.33,7.08,5.91c2.36,1.59,4.7,2.85,7.02,3.79c2.32,0.93,4.6,1.61,6.83,2.01
				c2.24,0.41,4.42,0.61,6.53,0.61C339.92,1833.87,342.05,1833.65,344.21,1833.21z"/>
			<path class="st4" d="M523.64,1815.8c-2.24,5.46-5.33,10.22-9.28,14.28c-3.95,4.08-8.64,7.28-14.1,9.64
				c-5.45,2.36-11.4,3.54-17.82,3.54c-6.51,0-12.49-1.16-17.95-3.47c-5.45-2.32-10.17-5.5-14.15-9.52
				c-3.99-4.03-7.08-8.75-9.28-14.16c-2.19-5.41-3.3-11.2-3.3-17.39c0-6.27,1.12-12.12,3.36-17.58c2.24-5.45,5.35-10.19,9.34-14.22
				c3.99-4.03,8.73-7.22,14.22-9.58c5.5-2.36,11.49-3.54,18.01-3.54c6.42,0,12.35,1.18,17.76,3.54c5.41,2.36,10.09,5.58,14.04,9.64
				c3.95,4.08,7.02,8.8,9.21,14.16c2.2,5.38,3.3,11.11,3.3,17.21C527,1804.54,525.88,1810.35,523.64,1815.8z M513.88,1784.93
				c-1.67-4.32-4.01-8.08-7.02-11.3c-3.01-3.21-6.59-5.75-10.74-7.63c-4.15-1.87-8.67-2.8-13.55-2.8c-5.04,0-9.66,0.92-13.85,2.74
				c-4.19,1.84-7.8,4.34-10.81,7.51c-3.01,3.17-5.35,6.9-7.01,11.17c-1.67,4.27-2.5,8.84-2.5,13.73c0,4.97,0.83,9.62,2.5,13.98
				c1.67,4.35,4.01,8.11,7.01,11.29c3.01,3.17,6.62,5.67,10.81,7.5c4.19,1.84,8.81,2.75,13.85,2.75c4.89,0,9.4-0.92,13.55-2.75
				c4.15-1.82,7.73-4.33,10.74-7.5c3.01-3.18,5.35-6.88,7.02-11.11c1.66-4.23,2.5-8.79,2.5-13.67
				C516.38,1793.88,515.54,1789.24,513.88,1784.93z"/>
			<path class="st4" d="M612.93,1841.8h-10.38v-86.29h55.79v9.27h-45.41v29.3h41.62v9.27h-41.62V1841.8z"/>
			<path class="st4" d="M761.23,1841.56h-10.26v-76.78h-25.63v-9.27h61.51v9.27h-25.63V1841.56z"/>
			<path class="st4" d="M884.03,1826.18l21.12-70.79h9.88l21.73,70.79l22.46-70.67h10.74l-28.56,86.05h-9.76l-21.85-71.04
				l-21.12,71.04h-10.01l-28.92-86.05h11.1L884.03,1826.18z"/>
			<path class="st4" d="M1056.61,1817.52l-10.37,24.04h-11.11l37.6-86.05h8.55l37.71,86.05h-11.35l-10.26-24.04H1056.61z
				 M1060.52,1808.36h32.96l-16.49-40.77L1060.52,1808.36z"/>
			<path class="st4" d="M1192.71,1841.56v-86.05h26.74c4.39,0,8.42,0.58,12.07,1.76s6.79,2.87,9.4,5.07c2.6,2.21,4.64,4.8,6.1,7.82
				c1.47,3,2.19,6.34,2.19,10c0,6.59-2.16,11.99-6.47,16.18c-4.31,4.2-10.05,6.9-17.2,8.12l27.94,37.11h-12.56l-26.74-36.5h-10.98
				v36.5H1192.71z M1216.15,1796.65c3.17,0,6.14-0.29,8.92-0.86c2.77-0.57,5.16-1.5,7.2-2.81c2.03-1.3,3.61-2.97,4.76-4.99
				c1.14-2.04,1.7-4.52,1.7-7.45c0-5.45-1.79-9.44-5.36-11.97c-3.59-2.52-8.63-3.78-15.14-3.78h-15.01v31.86H1216.15z"/>
			<path class="st4" d="M1337.84,1832.29h46.99v9.27h-57.49v-86.05h56.16v9.27h-45.65v28.32h42.11v9.27h-42.11V1832.29z"/>
			<path class="st4" d="M1584.95,1833.21c2.16-0.45,4.11-1.18,5.86-2.21c1.74-1.01,3.19-2.36,4.33-4.03
				c1.14-1.67,1.72-3.72,1.72-6.16c0-3.34-1.08-6.2-3.24-8.61c-2.16-2.4-4.86-4.59-8.12-6.59c-3.25-1.99-6.79-3.95-10.62-5.85
				c-3.83-1.92-7.37-4.05-10.62-6.41c-3.25-2.36-5.96-5.08-8.11-8.18c-2.16-3.09-3.24-6.83-3.24-11.23c0-3.17,0.74-6,2.19-8.49
				c1.47-2.48,3.42-4.58,5.86-6.28s5.27-3,8.49-3.91c3.21-0.89,6.53-1.33,9.94-1.33c3.99,0,7.75,0.55,11.29,1.64
				c3.54,1.1,6.73,2.87,9.58,5.3v12.58c-1.62-2.11-3.31-3.84-5.07-5.19c-1.75-1.35-3.52-2.4-5.3-3.17s-3.56-1.3-5.32-1.59
				c-1.74-0.29-3.43-0.43-5.07-0.43c-4.64,0-8.48,0.95-11.53,2.86c-3.05,1.92-4.58,4.66-4.58,8.25c0,3,1.07,5.59,3.23,7.75
				c2.16,2.16,4.86,4.17,8.12,6.04c3.25,1.87,6.79,3.72,10.62,5.55c3.83,1.82,7.37,3.95,10.62,6.34c3.25,2.4,5.96,5.19,8.12,8.36
				c2.16,3.18,3.23,7.04,3.23,11.6c0,4.23-0.85,7.83-2.56,10.81c-1.7,2.97-3.97,5.36-6.77,7.2c-2.81,1.82-5.96,3.15-9.46,3.96
				c-3.49,0.82-7.08,1.23-10.74,1.23c-5.04,0-9.79-0.75-14.22-2.26c-4.43-1.5-8.61-4.12-12.5-7.87v-11.35
				c2.35,2.36,4.71,4.33,7.07,5.91c2.36,1.59,4.71,2.85,7.02,3.79c2.32,0.93,4.6,1.61,6.84,2.01c2.23,0.41,4.41,0.61,6.53,0.61
				C1580.66,1833.87,1582.79,1833.65,1584.95,1833.21z"/>
			<path class="st4" d="M1764.38,1815.8c-2.24,5.46-5.33,10.22-9.27,14.28c-3.95,4.08-8.65,7.28-14.1,9.64
				c-5.45,2.36-11.4,3.54-17.82,3.54c-6.51,0-12.49-1.16-17.94-3.47c-5.46-2.32-10.18-5.5-14.16-9.52
				c-3.99-4.03-7.08-8.75-9.27-14.16c-2.21-5.41-3.3-11.2-3.3-17.39c0-6.27,1.12-12.12,3.36-17.58c2.23-5.45,5.35-10.19,9.33-14.22
				c3.98-4.03,8.73-7.22,14.22-9.58c5.5-2.36,11.49-3.54,18-3.54c6.44,0,12.35,1.18,17.76,3.54c5.41,2.36,10.1,5.58,14.04,9.64
				c3.95,4.08,7.02,8.8,9.21,14.16c2.19,5.38,3.3,11.11,3.3,17.21C1767.74,1804.54,1766.62,1810.35,1764.38,1815.8z
				 M1754.62,1784.93c-1.67-4.32-4.02-8.08-7.02-11.3c-3.02-3.21-6.59-5.75-10.74-7.63c-4.15-1.87-8.67-2.8-13.55-2.8
				c-5.04,0-9.67,0.92-13.85,2.74c-4.2,1.84-7.8,4.34-10.8,7.51c-3.02,3.17-5.35,6.9-7.02,11.17c-1.67,4.27-2.5,8.84-2.5,13.73
				c0,4.97,0.83,9.62,2.5,13.98c1.67,4.35,4.01,8.11,7.02,11.29c3,3.17,6.6,5.67,10.8,7.5c4.18,1.84,8.81,2.75,13.85,2.75
				c4.89,0,9.4-0.92,13.55-2.75c4.15-1.82,7.72-4.33,10.74-7.5c3-3.18,5.35-6.88,7.02-11.11s2.5-8.79,2.5-13.67
				C1757.12,1793.88,1756.29,1789.24,1754.62,1784.93z"/>
			<path class="st4" d="M1853.68,1832.29h42.1v9.27h-52.48v-86.05h10.38V1832.29z"/>
			<path class="st4" d="M1983.96,1840.76c-4.27-1.74-7.86-4.22-10.74-7.44s-5.07-7.06-6.53-11.54c-1.47-4.47-2.19-9.44-2.19-14.89
				v-51.51h10.25v51.02c0,8.46,1.98,15.15,5.92,20.07c3.95,4.92,9.94,7.39,18,7.39c7.65,0,13.53-2.24,17.64-6.71
				c4.1-4.48,6.16-11.28,6.16-20.38v-51.39h10.25v51.14c0,5.7-0.72,10.82-2.13,15.38c-1.43,4.57-3.56,8.43-6.41,11.6
				c-2.85,3.17-6.39,5.61-10.62,7.33c-4.23,1.7-9.15,2.56-14.77,2.56C1993.17,1843.4,1988.24,1842.51,1983.96,1840.76z"/>
			<path class="st4" d="M2139.16,1841.56h-10.25v-76.78h-25.63v-9.27h61.52v9.27h-25.64V1841.56z"/>
			<path class="st4" d="M2245.72,1841.56h-10.25v-86.05h10.25V1841.56z"/>
			<path class="st4" d="M2406.91,1815.8c-2.24,5.46-5.33,10.22-9.27,14.28c-3.95,4.08-8.65,7.28-14.1,9.64
				c-5.45,2.36-11.4,3.54-17.82,3.54c-6.51,0-12.49-1.16-17.94-3.47c-5.46-2.32-10.18-5.5-14.16-9.52
				c-3.99-4.03-7.08-8.75-9.27-14.16c-2.21-5.41-3.3-11.2-3.3-17.39c0-6.27,1.12-12.12,3.36-17.58c2.23-5.45,5.35-10.19,9.33-14.22
				c3.98-4.03,8.73-7.22,14.22-9.58c5.5-2.36,11.49-3.54,18-3.54c6.44,0,12.35,1.18,17.76,3.54c5.41,2.36,10.1,5.58,14.04,9.64
				c3.95,4.08,7.02,8.8,9.21,14.16c2.19,5.38,3.3,11.11,3.3,17.21C2410.27,1804.54,2409.15,1810.35,2406.91,1815.8z
				 M2397.14,1784.93c-1.67-4.32-4.02-8.08-7.02-11.3c-3.02-3.21-6.59-5.75-10.74-7.63c-4.15-1.87-8.67-2.8-13.55-2.8
				c-5.04,0-9.67,0.92-13.85,2.74c-4.2,1.84-7.8,4.34-10.8,7.51c-3.02,3.17-5.35,6.9-7.02,11.17c-1.67,4.27-2.5,8.84-2.5,13.73
				c0,4.97,0.83,9.62,2.5,13.98c1.67,4.35,4.01,8.11,7.02,11.29c3,3.17,6.6,5.67,10.8,7.5c4.18,1.84,8.81,2.75,13.85,2.75
				c4.89,0,9.4-0.92,13.55-2.75c4.15-1.82,7.72-4.33,10.74-7.5c3-3.18,5.35-6.88,7.02-11.11s2.5-8.79,2.5-13.67
				C2399.65,1793.88,2398.81,1789.24,2397.14,1784.93z"/>
			<path class="st4" d="M2547.33,1826.18v-70.67h10.01v86.05h-10.25l-51.27-70.42v70.42h-10.01v-85.44h10.38L2547.33,1826.18z"/>
			<path class="st4" d="M2667.26,1833.21c2.16-0.45,4.11-1.18,5.86-2.21c1.74-1.01,3.19-2.36,4.33-4.03
				c1.14-1.67,1.72-3.72,1.72-6.16c0-3.34-1.08-6.2-3.24-8.61c-2.16-2.4-4.86-4.59-8.12-6.59c-3.25-1.99-6.79-3.95-10.62-5.85
				c-3.83-1.92-7.37-4.05-10.62-6.41c-3.25-2.36-5.96-5.08-8.11-8.18c-2.16-3.09-3.24-6.83-3.24-11.23c0-3.17,0.74-6,2.19-8.49
				c1.47-2.48,3.42-4.58,5.86-6.28s5.27-3,8.49-3.91c3.21-0.89,6.53-1.33,9.94-1.33c3.99,0,7.75,0.55,11.29,1.64s6.73,2.87,9.58,5.3
				v12.58c-1.62-2.11-3.31-3.84-5.07-5.19s-3.52-2.4-5.3-3.17s-3.56-1.3-5.32-1.59c-1.74-0.29-3.43-0.43-5.07-0.43
				c-4.64,0-8.48,0.95-11.53,2.86c-3.05,1.92-4.58,4.66-4.58,8.25c0,3,1.07,5.59,3.23,7.75c2.16,2.16,4.86,4.17,8.12,6.04
				c3.25,1.87,6.79,3.72,10.62,5.55c3.83,1.82,7.37,3.95,10.62,6.34c3.25,2.4,5.96,5.19,8.12,8.36c2.16,3.18,3.23,7.04,3.23,11.6
				c0,4.23-0.85,7.83-2.56,10.81c-1.7,2.97-3.97,5.36-6.77,7.2c-2.81,1.82-5.96,3.15-9.46,3.96c-3.49,0.82-7.08,1.23-10.74,1.23
				c-5.04,0-9.79-0.75-14.22-2.26c-4.43-1.5-8.61-4.12-12.5-7.87v-11.35c2.35,2.36,4.71,4.33,7.07,5.91
				c2.36,1.59,4.71,2.85,7.02,3.79c2.32,0.93,4.6,1.61,6.84,2.01c2.23,0.41,4.41,0.61,6.53,0.61
				C2662.97,1833.87,2665.1,1833.65,2667.26,1833.21z"/>
		</g>
		<g>
			<path class="st5" d="M727.09,1633.78c-16.5,28.57-46.02,45.66-79.01,45.66H401.84c-32.99,0-62.64-17.09-79.13-45.66
				c-16.5-28.57-16.5-62.76,0-91.32l44.23-76.74l37.53,64.91c2.51,4.3,5.26,8.49,8.13,12.55l-22.11,38.37
				c-3.35,5.74-1.43,10.64,0,13.15c1.43,2.39,4.78,6.57,11.36,6.57h246.24c6.57,0,9.92-4.18,11.36-6.57c1.31-2.51,3.23-7.41,0-13.15
				l-22.23-38.49l-27.13-46.98l-45.06-78.06l-27.61-47.81l-1.08-1.91c-3.35-5.62-8.61-6.45-11.36-6.45c-2.87,0-8.13,0.84-11.36,6.45
				l-1.08,1.91l-40.4-70.05c15.06-10.64,33.35-16.61,52.83-16.61s37.77,5.98,52.83,16.73c10.52,7.53,19.48,17.33,26.18,28.93
				l6.1,10.64l45.18,78.18l27.61,47.81l44.23,76.62C743.59,1571.03,743.59,1605.21,727.09,1633.78z"/>
			<path class="st4" d="M727.09,1293.59l-44.23,76.5l-37.41-64.79c-2.51-4.3-5.26-8.49-8.25-12.43l22.23-38.49
				c3.23-5.62,1.31-10.64,0-13.03c-1.43-2.51-4.78-6.57-11.36-6.57H401.84c-6.57,0-9.92,4.06-11.36,6.57
				c-1.43,2.39-3.35,7.41,0,13.03l22.11,38.37l27.13,46.98l45.18,78.3l27.61,47.81l1.08,1.79c3.23,5.74,8.49,6.57,11.36,6.57
				c2.75,0,8.01-0.84,11.36-6.57l1.08-1.79l40.28,69.93c-15.06,10.76-33.23,16.62-52.71,16.62c-19.48,0.12-37.77-5.86-52.83-16.5
				c-10.52-7.53-19.48-17.33-26.3-29.17l-6.1-10.52l-45.18-78.17l-27.61-47.81l-44.23-76.62c-16.5-28.69-16.5-62.76,0-91.32
				c16.49-28.69,46.14-45.66,79.13-45.66h246.24c32.99,0,62.52,16.97,79.01,45.66C743.59,1230.83,743.59,1264.9,727.09,1293.59z"/>
		</g>
		<g>
			<path class="st5" d="M1084.39,1408.52c-16.59-7.71-38.01-15.43-64.27-23.15c-19.29-5.79-34.25-10.9-44.86-15.34
				s-19.49-10.23-26.63-17.37c-7.16-7.13-10.71-16.11-10.71-26.91c0-15.44,4.71-27.21,14.18-35.32c9.45-8.1,22.09-12.15,37.91-12.15
				c18.14,0,32.7,4.54,43.72,13.6c11,9.08,16.86,20.56,17.65,34.45h89.14c-2.7-36.27-17.07-64.55-43.12-84.81
				c-26.05-20.26-59.91-30.39-101.6-30.39c-27.78,0-52.48,4.73-74.1,14.18c-21.62,9.46-38.4,23.07-50.36,40.82
				c-11.97,17.76-17.95,38.6-17.95,62.52c0,25.47,5.88,45.83,17.66,61.07c11.76,15.25,25.85,26.62,42.26,34.16
				c16.4,7.52,37.73,15.15,63.97,22.86c19.29,5.41,34.44,10.33,45.44,14.76c11.02,4.45,20.16,10.52,27.51,18.24
				c7.31,7.72,11,17.57,11,29.52c0,14.67-5.42,26.54-16.21,35.61c-10.82,9.07-25.68,13.6-44.59,13.6c-18.52,0-33.09-4.82-43.7-14.47
				c-10.63-9.65-16.5-22.77-17.65-39.37h-86.84c0.38,24.71,7.14,46.12,20.26,64.26c13.12,18.15,30.97,32.04,53.55,41.68
				c22.57,9.65,47.94,14.47,76.11,14.47c29.71,0,55.37-5.5,77-16.5c21.61-11,38.01-25.77,49.2-44.29
				c11.19-18.52,16.8-38.59,16.8-60.21c0-25.08-6-45.34-17.96-60.78C1115.26,1427.83,1100.98,1416.25,1084.39,1408.52z"/>
			<path class="st5" d="M1227.37,1167.12c-14.28,0-26.14,4.54-35.6,13.61c-9.46,9.07-14.18,20.36-14.18,33.86
				c0,13.52,4.72,24.8,14.18,33.87c9.45,9.07,21.32,13.6,35.6,13.6s26.14-4.53,35.61-13.6c9.45-9.07,14.18-20.35,14.18-33.87
				c0-13.51-4.73-24.79-14.18-33.86C1253.51,1171.67,1241.65,1167.12,1227.37,1167.12z"/>
			<rect x="1186.27" y="1300.27" class="st5" width="81.04" height="320.72"/>
			<path class="st5" d="M1716.55,1295.64c-23.16,0-44.68,5.6-64.56,16.79c-19.88,11.2-35.02,26.05-45.44,44.57
				c-10.81-19.68-26.06-34.83-45.73-45.44c-19.68-10.61-42.07-15.93-67.15-15.93c-19.69,0-37.73,3.87-54.13,11.59
				c-16.41,7.72-29.82,18.33-40.24,31.83v-38.79h-81.04v320.72h81.04v-177.14c0-25.08,6.46-44.29,19.39-57.6
				c12.93-13.31,30.59-19.97,52.97-19.97c22,0,39.37,6.66,52.1,19.97c12.73,13.31,19.11,32.52,19.11,57.6v177.14h81.04v-177.14
				c0-25.08,6.45-44.29,19.39-57.6c12.93-13.31,30.4-19.97,52.39-19.97c22,0,39.37,6.66,52.1,19.97
				c12.73,13.31,19.1,32.52,19.1,57.6v177.14h81.05v-188.14c0-43.22-12.07-76.89-36.18-101.02
				C1787.64,1307.71,1755.9,1295.64,1716.55,1295.64z"/>
			<path class="st5" d="M2157.36,1315.33c-22.2-13.51-46.99-20.27-74.39-20.27c-23.55,0-44.48,4.92-62.81,14.77
				c-18.34,9.84-32.71,22.09-43.13,36.75v-46.31h-81.04v409.86h81.04v-134.88c11.19,14.67,25.77,26.83,43.71,36.47
				c17.94,9.64,38.68,14.47,62.23,14.47c27.4,0,52.19-6.95,74.39-20.84c22.19-13.9,39.74-33.48,52.68-58.76
				c12.93-25.27,19.39-54.32,19.39-87.13c0-32.8-6.46-61.65-19.39-86.54C2197.11,1348.03,2179.55,1328.84,2157.36,1315.33z
				 M2134.79,1510.41c-7.92,14.29-18.34,25.28-31.26,33c-12.94,7.72-26.91,11.58-41.96,11.58c-14.67,0-28.47-3.76-41.39-11.29
				c-12.94-7.52-23.35-18.43-31.27-32.71c-7.91-14.28-11.87-31.06-11.87-50.37c0-19.29,3.95-36.08,11.87-50.37
				c7.91-14.27,18.33-25.18,31.27-32.7c12.93-7.52,26.72-11.29,41.39-11.29c15.05,0,29.03,3.67,41.96,11
				c12.93,7.33,23.35,18.04,31.26,32.12c7.9,14.09,11.87,30.78,11.87,50.08C2146.65,1479.16,2142.69,1496.13,2134.79,1510.41z"/>
			<rect x="2259.54" y="1211.12" class="st5" width="81.04" height="409.86"/>
			<path class="st5" d="M2613.53,1314.75c-24.12-13.12-51.43-19.69-81.91-19.69c-31.65,0-59.63,6.76-83.94,20.27
				c-24.32,13.52-43.23,32.81-56.73,57.89c-13.51,25.09-20.27,54.22-20.27,87.41c0,32.81,6.85,61.76,20.56,86.84
				c13.69,25.09,32.8,44.48,57.31,58.18c24.5,13.7,52.19,20.55,83.07,20.55c38.21,0,70.43-9.93,96.68-29.81
				c26.24-19.87,44-45.25,53.26-76.13h-87.42c-12.73,25.86-34.15,38.79-64.26,38.79c-20.84,0-38.4-6.56-52.68-19.68
				c-14.28-13.12-22.39-31.27-24.31-54.42h234.45c1.53-9.26,2.32-19.69,2.32-31.27c0-31.26-6.66-58.95-19.98-83.07
				C2656.37,1346.49,2637.64,1327.87,2613.53,1314.75z M2453.47,1430.53c3.08-21.61,11.48-38.5,25.18-50.66
				c13.7-12.15,30.58-18.23,50.66-18.23c21.22,0,39.17,6.27,53.84,18.81c14.66,12.54,22.19,29.23,22.57,50.08H2453.47z"/>
		</g>
	</g>
</g>
</svg>
