<?xml version="1.0" encoding="utf-8"?>
<!-- Generator: Adobe Illustrator 17.0.0, SVG Export Plug-In . SVG Version: 6.00 Build 0)  -->
<!DOCTYPE svg PUBLIC "-//W3C//DTD SVG 1.1//EN" "http://www.w3.org/Graphics/SVG/1.1/DTD/svg11.dtd">
<svg version="1.1" id="Layer_1" xmlns="http://www.w3.org/2000/svg" xmlns:xlink="http://www.w3.org/1999/xlink" x="0px" y="0px"
	 width="205.25px" height="67.25px" viewBox="-1.833 -1.25 205.25 67.25" enable-background="new -1.833 -1.25 205.25 67.25"
	 xml:space="preserve">
<g>
	
		<image overflow="visible" opacity="0.3" width="49" height="49" xlink:href="5FA56DBF8B7FCF92.png"  transform="matrix(1 0 0 1 -0.8335 -0.75)">
	</image>
	<g>
		<polygon fill="none" stroke="#E92628" stroke-width="3" stroke-miterlimit="10" points="43.077,4.499 29.248,4.499 4.155,4.499 
			4.155,18.467 19.445,18.467 5.678,32.233 15.555,42.11 29.248,28.418 29.248,43.421 43.216,43.421 43.216,4.499 		"/>
	</g>
</g>
<g>
	
		<image overflow="visible" opacity="0.3" width="160" height="45" xlink:href="5FA56DBF8B7FCF95.png"  transform="matrix(1 0 0 1 43.1665 1.25)">
	</image>
	<g>
		<g>
			<path fill="#10142B" d="M58.698,12.869c2.955,0,5.349,0.785,7.182,2.356s2.88,3.723,3.143,6.453H60.83
				c-0.15-1.384-0.954-2.076-2.413-2.076c-0.786,0-1.422,0.168-1.908,0.505s-0.729,0.767-0.729,1.29
				c0,0.637,0.337,1.207,1.014,1.712c0.676,0.505,1.784,0.964,3.325,1.375c1.464,0.412,2.656,0.767,3.576,1.065
				c0.92,0.3,1.681,0.6,2.282,0.898c0.601,0.3,1.098,0.646,1.492,1.038s0.798,0.869,1.212,1.431
				c0.863,1.272,1.295,2.731,1.295,4.377c0,1.347-0.3,2.609-0.897,3.787c-0.599,1.179-1.422,2.188-2.469,3.03
				c-1.047,0.842-2.282,1.506-3.703,1.992c-1.422,0.485-2.956,0.729-4.602,0.729c-1.571,0-3.011-0.216-4.32-0.646
				c-1.31-0.43-2.451-1.047-3.423-1.852c-0.973-0.804-1.759-1.776-2.357-2.918c-0.599-1.141-0.973-2.44-1.122-3.899h8.305
				c0.228,1.721,1.314,2.581,3.257,2.581c0.8,0,1.495-0.205,2.086-0.617c0.59-0.411,0.886-0.917,0.886-1.516
				c0-1.271-1.09-2.207-3.268-2.806l-4.957-1.29c-0.864-0.225-1.662-0.59-2.395-1.095s-1.361-1.094-1.888-1.768
				c-0.526-0.673-0.939-1.431-1.239-2.272c-0.301-0.842-0.451-1.711-0.451-2.609c0-1.271,0.288-2.478,0.864-3.619
				c0.576-1.141,1.375-2.122,2.397-2.945c1.021-0.822,2.22-1.478,3.597-1.964S57.127,12.869,58.698,12.869z"/>
			<polygon fill="#E8272A" points="80.413,4.452 80.413,9.849 72.053,12.849 72.053,4.452 			"/>
			<polygon fill="#10142B" points="80.413,13.822 80.413,41.879 72.053,41.879 72.053,16.822 			"/>
			<path fill="#10142B" d="M84.117,41.879V13.795h7.915v2.974c1.684-2.6,4.249-3.899,7.692-3.899c3.594,0,6.309,1.652,8.143,4.958
				c2.055-3.306,5.027-4.958,8.916-4.958c2.877,0,5.289,0.936,7.233,2.806c0.635,0.636,1.158,1.244,1.569,1.823
				c0.412,0.58,0.729,1.272,0.953,2.076c0.225,0.805,0.374,1.759,0.449,2.861c0.074,1.104,0.112,2.479,0.112,4.125v15.318h-8.36
				V26.913c0-2.249-0.32-3.853-0.96-4.81c-0.64-0.956-1.713-1.436-3.218-1.436c-3.088,0-4.631,1.951-4.631,5.852v15.359h-8.36V26.52
				c0-3.9-1.45-5.852-4.348-5.852c-3.162,0-4.742,1.951-4.742,5.852v15.359H84.117z"/>
			<path fill="#10142B" d="M130.279,41.879V13.198h9.374c1.146,0,2.164,0.036,3.053,0.107c0.888,0.071,1.677,0.193,2.365,0.365
				s1.304,0.395,1.849,0.667c0.544,0.272,1.061,0.609,1.548,1.01c1.089,0.889,1.92,1.993,2.494,3.312
				c0.573,1.318,0.86,2.752,0.86,4.3c0,1.462-0.273,2.853-0.817,4.171c-0.544,1.319-1.276,2.408-2.193,3.268
				c-0.975,0.918-2.107,1.563-3.397,1.936c-1.29,0.373-2.953,0.559-4.988,0.559h-3.139v8.987L130.279,41.879L130.279,41.879z
				 M137.288,26.442h2.967c3.039,0,4.558-1.125,4.558-3.376c0-1.211-0.38-2.084-1.139-2.617c-0.76-0.534-2-0.802-3.72-0.802h-2.666
				L137.288,26.442L137.288,26.442z"/>
			<path fill="#10142B" d="M153.628,41.879V13.198h7.31v22.23h8.471v6.45L153.628,41.879L153.628,41.879z"/>
			<path fill="#10142B" d="M189.448,33.519c0.037-0.075,0.093-0.141,0.168-0.197s0.149-0.12,0.225-0.196h8.529
				c-1.31,3.03-3.162,5.406-5.555,7.127c-2.395,1.72-5.088,2.581-8.081,2.581c-2.058,0-3.984-0.384-5.779-1.15
				c-1.796-0.767-3.358-1.824-4.686-3.171s-2.376-2.926-3.142-4.741c-0.768-1.813-1.15-3.769-1.15-5.863s0.383-4.059,1.15-5.893
				c0.766-1.832,1.804-3.423,3.114-4.77c1.309-1.347,2.852-2.412,4.629-3.198c1.776-0.785,3.676-1.178,5.696-1.178
				c2.094,0,4.049,0.393,5.864,1.178c1.814,0.786,3.385,1.861,4.713,3.227c1.327,1.366,2.365,2.983,3.114,4.854
				c0.748,1.871,1.122,3.892,1.122,6.061c0,0.486-0.019,0.87-0.056,1.15c-0.038,0.28-0.094,0.664-0.168,1.15h-21.042
				c0.187,1.571,0.842,2.833,1.964,3.787s2.525,1.431,4.208,1.431c1.047,0,1.945-0.148,2.693-0.448
				C187.727,34.959,188.551,34.379,189.448,33.519z M190.963,24.877c-0.3-1.459-1.02-2.638-2.16-3.535
				c-1.142-0.897-2.535-1.347-4.181-1.347s-3.021,0.421-4.124,1.263c-1.104,0.842-1.824,2.048-2.16,3.619H190.963z"/>
		</g>
	</g>
</g>
<g>
	
		<image overflow="visible" opacity="0.3" width="202" height="21" xlink:href="5FA56DBF8B7FCF97.png"  transform="matrix(1 0 0 1 1.1665 44.25)">
	</image>
	<g>
		<g>
			<path fill="#FFFFFF" d="M13.07,49.548c0.163,0.203,0.298,0.393,0.406,0.568s0.196,0.365,0.264,0.568
				c0.067,0.203,0.118,0.427,0.152,0.67c0.033,0.244,0.064,0.528,0.091,0.854h-3.412c-0.069-0.46-0.202-0.792-0.4-0.995
				s-0.481-0.305-0.85-0.305c-0.328,0-0.611,0.102-0.85,0.305s-0.358,0.446-0.358,0.731c0,0.541,0.386,0.988,1.158,1.34l1.665,0.751
				c1.137,0.515,1.946,1.073,2.427,1.676s0.721,1.344,0.721,2.224c0,1.313-0.414,2.332-1.242,3.057s-1.984,1.086-3.47,1.086
				c-0.758,0-1.439-0.098-2.041-0.294c-0.603-0.196-1.117-0.48-1.543-0.854c-0.426-0.372-0.755-0.822-0.985-1.35
				s-0.345-1.124-0.345-1.787v-0.447h3.473c0,0.568,0.125,1.016,0.375,1.341c0.25,0.324,0.592,0.487,1.026,0.487
				c0.378,0,0.697-0.125,0.954-0.376c0.257-0.25,0.386-0.559,0.386-0.924c0-0.312-0.113-0.582-0.336-0.812
				c-0.224-0.23-0.595-0.447-1.11-0.65c-0.408-0.176-0.744-0.314-1.009-0.416c-0.265-0.102-0.452-0.179-0.561-0.233
				c-0.312-0.135-0.604-0.281-0.876-0.437c-0.271-0.155-0.522-0.328-0.753-0.518c-0.421-0.339-0.754-0.755-0.999-1.249
				s-0.367-1.012-0.367-1.554c0-0.568,0.122-1.097,0.365-1.584s0.579-0.91,1.005-1.27c0.427-0.358,0.931-0.64,1.513-0.843
				s1.205-0.305,1.868-0.305c0.731,0,1.425,0.14,2.082,0.417C12.153,48.698,12.678,49.074,13.07,49.548z"/>
			<path fill="#FFFFFF" d="M21.924,62.077c-1.002,0-1.937-0.18-2.803-0.538s-1.618-0.853-2.254-1.482
				c-0.637-0.629-1.137-1.37-1.503-2.224c-0.366-0.853-0.548-1.773-0.548-2.762c0-1.002,0.183-1.933,0.548-2.792
				c0.366-0.86,0.866-1.607,1.503-2.244c0.636-0.637,1.388-1.134,2.254-1.493c0.866-0.358,1.801-0.538,2.803-0.538
				c1.015,0,1.959,0.183,2.833,0.549c0.873,0.365,1.631,0.863,2.274,1.492c0.643,0.63,1.15,1.374,1.523,2.234
				c0.372,0.859,0.559,1.783,0.559,2.771s-0.187,1.909-0.559,2.762c-0.373,0.854-0.88,1.595-1.523,2.224
				c-0.644,0.63-1.401,1.128-2.274,1.493C23.884,61.894,22.939,62.077,21.924,62.077z M21.965,51.05
				c-0.528,0-1.019,0.102-1.472,0.304c-0.454,0.203-0.843,0.481-1.168,0.833c-0.325,0.353-0.582,0.769-0.771,1.249
				c-0.19,0.48-0.285,1.005-0.285,1.574c0,0.568,0.095,1.1,0.285,1.594c0.189,0.494,0.45,0.921,0.782,1.279
				c0.332,0.359,0.728,0.64,1.188,0.843s0.955,0.305,1.482,0.305c0.515,0,0.995-0.102,1.442-0.305s0.833-0.48,1.158-0.832
				c0.325-0.353,0.582-0.772,0.771-1.26c0.189-0.487,0.284-1.008,0.284-1.563c0-0.568-0.095-1.097-0.284-1.584
				c-0.19-0.487-0.45-0.914-0.782-1.279c-0.332-0.365-0.721-0.65-1.168-0.854C22.98,51.152,22.493,51.05,21.965,51.05z"/>
			<path fill="#FFFFFF" d="M30.433,61.813V48.268h7.392v3.046h-4.082v2.295h3.939v3.046h-3.939v5.158
				C33.743,61.813,30.433,61.813,30.433,61.813z"/>
			<path fill="#FFFFFF" d="M40.708,61.813V51.314h-2.681v-3.046h8.813v3.046h-2.68v10.499H40.708z"/>
			<path fill="#FFFFFF" d="M46.699,48.268h3.513l1.808,8.813l2.01-8.813h2.661l1.99,8.854l1.848-8.854h3.513l-3.594,13.545h-3.046
				L55.35,53.06l-2.051,8.753h-3.107L46.699,48.268z"/>
			<path fill="#FFFFFF" d="M72.124,59.843h-4.711l-0.711,1.97h-3.716l5.422-13.545h2.742l5.381,13.545h-3.757L72.124,59.843z
				 M68.368,57.102h2.823l-1.401-4.631L68.368,57.102z"/>
			<path fill="#FFFFFF" d="M77.201,61.813V48.268h4.285c0.569,0,1.063,0.017,1.482,0.051c0.419,0.033,0.792,0.088,1.117,0.162
				c0.325,0.074,0.609,0.173,0.853,0.294c0.244,0.122,0.48,0.278,0.71,0.468c0.515,0.434,0.92,0.975,1.219,1.624
				c0.297,0.65,0.447,1.348,0.447,2.092c0,1.124-0.305,2.068-0.914,2.833c-0.609,0.766-1.429,1.235-2.457,1.411l3.676,4.61h-3.96
				l-3.147-4.387v4.387C80.512,61.813,77.201,61.813,77.201,61.813z M80.511,55.071h1.218c0.731,0,1.29-0.166,1.676-0.497
				c0.386-0.332,0.579-0.803,0.579-1.412s-0.19-1.069-0.569-1.381s-0.927-0.467-1.645-0.467h-1.259
				C80.511,51.314,80.511,55.071,80.511,55.071z"/>
			<path fill="#FFFFFF" d="M88.695,61.813V48.268h7.514v3.046h-4.204v2.092h4.082v3.046h-4.082v2.315h4.204v3.046
				C96.209,61.813,88.695,61.813,88.695,61.813z"/>
			<path fill="#FFFFFF" d="M110.242,49.548c0.163,0.203,0.298,0.393,0.406,0.568s0.196,0.365,0.264,0.568
				c0.067,0.203,0.118,0.427,0.152,0.67c0.033,0.244,0.064,0.528,0.091,0.854h-3.412c-0.069-0.46-0.202-0.792-0.4-0.995
				s-0.481-0.305-0.85-0.305c-0.328,0-0.611,0.102-0.85,0.305s-0.358,0.446-0.358,0.731c0,0.541,0.386,0.988,1.158,1.34l1.665,0.751
				c1.137,0.515,1.946,1.073,2.427,1.676s0.721,1.344,0.721,2.224c0,1.313-0.414,2.332-1.242,3.057s-1.984,1.086-3.47,1.086
				c-0.758,0-1.439-0.098-2.041-0.294c-0.603-0.196-1.117-0.48-1.543-0.854c-0.426-0.372-0.755-0.822-0.985-1.35
				s-0.345-1.124-0.345-1.787v-0.447h3.473c0,0.568,0.125,1.016,0.375,1.341c0.25,0.324,0.592,0.487,1.026,0.487
				c0.378,0,0.697-0.125,0.954-0.376c0.257-0.25,0.386-0.559,0.386-0.924c0-0.312-0.113-0.582-0.336-0.812
				c-0.224-0.23-0.595-0.447-1.11-0.65c-0.408-0.176-0.744-0.314-1.009-0.416s-0.452-0.179-0.561-0.233
				c-0.312-0.135-0.604-0.281-0.876-0.437c-0.271-0.155-0.522-0.328-0.753-0.518c-0.421-0.339-0.754-0.755-0.999-1.249
				s-0.367-1.012-0.367-1.554c0-0.568,0.122-1.097,0.365-1.584s0.579-0.91,1.005-1.27c0.427-0.358,0.931-0.64,1.513-0.843
				s1.205-0.305,1.868-0.305c0.731,0,1.425,0.14,2.082,0.417C109.324,48.698,109.849,49.074,110.242,49.548z"/>
			<path fill="#FFFFFF" d="M119.096,62.077c-1.002,0-1.937-0.18-2.803-0.538s-1.618-0.853-2.254-1.482
				c-0.637-0.629-1.137-1.37-1.503-2.224c-0.366-0.853-0.548-1.773-0.548-2.762c0-1.002,0.183-1.933,0.548-2.792
				c0.366-0.86,0.866-1.607,1.503-2.244c0.636-0.637,1.388-1.134,2.254-1.493c0.866-0.358,1.801-0.538,2.803-0.538
				c1.015,0,1.959,0.183,2.833,0.549c0.873,0.365,1.631,0.863,2.274,1.492c0.643,0.63,1.15,1.374,1.523,2.234
				c0.372,0.859,0.559,1.783,0.559,2.771s-0.187,1.909-0.559,2.762c-0.373,0.854-0.88,1.595-1.523,2.224
				c-0.644,0.63-1.401,1.128-2.274,1.493C121.055,61.894,120.111,62.077,119.096,62.077z M119.136,51.05
				c-0.528,0-1.019,0.102-1.472,0.304c-0.454,0.203-0.843,0.481-1.168,0.833c-0.325,0.353-0.582,0.769-0.771,1.249
				c-0.19,0.48-0.285,1.005-0.285,1.574c0,0.568,0.095,1.1,0.285,1.594c0.189,0.494,0.45,0.921,0.782,1.279
				c0.332,0.359,0.728,0.64,1.188,0.843c0.46,0.203,0.955,0.305,1.482,0.305c0.515,0,0.995-0.102,1.442-0.305
				s0.833-0.48,1.158-0.832c0.325-0.353,0.582-0.772,0.771-1.26c0.189-0.487,0.284-1.008,0.284-1.563
				c0-0.568-0.095-1.097-0.284-1.584c-0.19-0.487-0.45-0.914-0.782-1.279c-0.332-0.365-0.721-0.65-1.168-0.854
				C120.151,51.152,119.664,51.05,119.136,51.05z"/>
			<path fill="#FFFFFF" d="M127.604,61.813V48.268h3.452v10.499h4v3.046C135.056,61.813,127.604,61.813,127.604,61.813z"/>
			<path fill="#FFFFFF" d="M135.93,48.268h3.452v8.204c0,0.894,0.139,1.543,0.416,1.949s0.728,0.609,1.351,0.609
				c0.636,0,1.083-0.189,1.34-0.568s0.386-1.043,0.386-1.99v-8.204h3.453v8.204c0,1.002-0.102,1.817-0.305,2.447
				c-0.203,0.629-0.548,1.194-1.036,1.695c-0.961,0.975-2.241,1.462-3.838,1.462c-0.799,0-1.523-0.121-2.173-0.365
				s-1.212-0.603-1.686-1.076c-0.257-0.257-0.474-0.518-0.65-0.782s-0.314-0.559-0.416-0.883c-0.102-0.325-0.176-0.688-0.224-1.087
				s-0.071-0.869-0.071-1.411L135.93,48.268L135.93,48.268z"/>
			<path fill="#FFFFFF" d="M149.76,61.813V51.314h-2.681v-3.046h8.813v3.046h-2.681v10.499H149.76z"/>
			<path fill="#FFFFFF" d="M156.766,61.813V48.268h3.452v13.545C160.218,61.813,156.766,61.813,156.766,61.813z"/>
			<path fill="#FFFFFF" d="M168.646,62.077c-1.002,0-1.937-0.18-2.803-0.538s-1.618-0.853-2.254-1.482
				c-0.637-0.629-1.137-1.37-1.503-2.224c-0.366-0.853-0.548-1.773-0.548-2.762c0-1.002,0.183-1.933,0.548-2.792
				c0.366-0.86,0.866-1.607,1.503-2.244c0.636-0.637,1.388-1.134,2.254-1.493c0.866-0.358,1.801-0.538,2.803-0.538
				c1.015,0,1.959,0.183,2.833,0.549c0.873,0.365,1.631,0.863,2.274,1.492c0.643,0.63,1.15,1.374,1.523,2.234
				c0.372,0.859,0.559,1.783,0.559,2.771s-0.187,1.909-0.559,2.762c-0.373,0.854-0.88,1.595-1.523,2.224
				c-0.644,0.63-1.401,1.128-2.274,1.493C170.605,61.894,169.661,62.077,168.646,62.077z M168.686,51.05
				c-0.528,0-1.019,0.102-1.472,0.304c-0.454,0.203-0.843,0.481-1.168,0.833c-0.325,0.353-0.582,0.769-0.771,1.249
				c-0.19,0.48-0.285,1.005-0.285,1.574c0,0.568,0.095,1.1,0.285,1.594c0.189,0.494,0.45,0.921,0.782,1.279
				c0.332,0.359,0.728,0.64,1.188,0.843s0.955,0.305,1.482,0.305c0.515,0,0.995-0.102,1.442-0.305s0.833-0.48,1.158-0.832
				c0.325-0.353,0.582-0.772,0.771-1.26c0.189-0.487,0.284-1.008,0.284-1.563c0-0.568-0.095-1.097-0.284-1.584
				c-0.19-0.487-0.45-0.914-0.782-1.279c-0.332-0.365-0.721-0.65-1.168-0.854C169.701,51.152,169.214,51.05,168.686,51.05z"/>
			<path fill="#FFFFFF" d="M177.155,61.813V48.268h2.965l5.28,8.529l-0.142-8.529h3.31v13.545h-3.005l-5.239-8.225l0.142,8.225
				C180.466,61.813,177.155,61.813,177.155,61.813z"/>
			<path fill="#FFFFFF" d="M198.234,49.548c0.163,0.203,0.298,0.393,0.406,0.568s0.196,0.365,0.264,0.568
				c0.067,0.203,0.118,0.427,0.152,0.67c0.033,0.244,0.064,0.528,0.091,0.854h-3.412c-0.069-0.46-0.202-0.792-0.4-0.995
				s-0.481-0.305-0.85-0.305c-0.328,0-0.611,0.102-0.85,0.305c-0.239,0.203-0.358,0.446-0.358,0.731c0,0.541,0.386,0.988,1.158,1.34
				l1.665,0.751c1.137,0.515,1.946,1.073,2.427,1.676s0.721,1.344,0.721,2.224c0,1.313-0.414,2.332-1.242,3.057
				s-1.984,1.086-3.47,1.086c-0.758,0-1.439-0.098-2.041-0.294c-0.603-0.196-1.117-0.48-1.543-0.854
				c-0.426-0.372-0.755-0.822-0.985-1.35s-0.345-1.124-0.345-1.787v-0.447h3.473c0,0.568,0.125,1.016,0.375,1.341
				c0.25,0.324,0.592,0.487,1.026,0.487c0.378,0,0.697-0.125,0.954-0.376c0.257-0.25,0.386-0.559,0.386-0.924
				c0-0.312-0.113-0.582-0.336-0.812c-0.224-0.23-0.595-0.447-1.11-0.65c-0.408-0.176-0.744-0.314-1.009-0.416
				s-0.452-0.179-0.561-0.233c-0.312-0.135-0.604-0.281-0.876-0.437c-0.271-0.155-0.522-0.328-0.753-0.518
				c-0.421-0.339-0.754-0.755-0.999-1.249s-0.367-1.012-0.367-1.554c0-0.568,0.122-1.097,0.365-1.584s0.579-0.91,1.005-1.27
				c0.427-0.358,0.931-0.64,1.513-0.843s1.205-0.305,1.868-0.305c0.731,0,1.425,0.14,2.082,0.417
				C197.316,48.698,197.841,49.074,198.234,49.548z"/>
		</g>
	</g>
</g>
</svg>
